<svg xmlns="http://www.w3.org/2000/svg" viewBox="0 0 600 300">
<defs><linearGradient id="bg" x1="0" y1="0" x2="0" y2="1">
<stop offset="0" stop-color="#1a1330"/><stop offset="1" stop-color="#0c0a1f"/></linearGradient>
<radialGradient id="gl" cx="0.5" cy="0.5" r="0.5"><stop offset="0" stop-color="#F6B821" stop-opacity="0.4"/><stop offset="1" stop-color="#F6B821" stop-opacity="0"/></radialGradient>
<linearGradient id="cup" x1="0" y1="0" x2="0" y2="1"><stop offset="0" stop-color="#ffe9a8"/><stop offset="1" stop-color="#e0a11f"/></linearGradient></defs>
<rect width="600" height="300" fill="url(#bg)"/>
<polygon points="300,150 600,150 598,187" fill="#F6B821" opacity="0.06"/><polygon points="300,150 590,228 578,262" fill="#F6B821" opacity="0.06"/><polygon points="300,150 560,300 540,331" fill="#F6B821" opacity="0.06"/><polygon points="300,150 512,362 485,386" fill="#F6B821" opacity="0.06"/><polygon points="300,150 450,410 417,426" fill="#F6B821" opacity="0.06"/><polygon points="300,150 378,440 342,447" fill="#F6B821" opacity="0.06"/><polygon points="300,150 300,450 263,448" fill="#F6B821" opacity="0.06"/><polygon points="300,150 222,440 188,428" fill="#F6B821" opacity="0.06"/><polygon points="300,150 150,410 119,390" fill="#F6B821" opacity="0.06"/><polygon points="300,150 88,362 64,335" fill="#F6B821" opacity="0.06"/><polygon points="300,150 40,300 24,267" fill="#F6B821" opacity="0.06"/><polygon points="300,150 10,228 3,192" fill="#F6B821" opacity="0.06"/><polygon points="300,150 0,150 2,113" fill="#F6B821" opacity="0.06"/><polygon points="300,150 10,72 22,38" fill="#F6B821" opacity="0.06"/><polygon points="300,150 40,-0 60,-31" fill="#F6B821" opacity="0.06"/><polygon points="300,150 88,-62 115,-86" fill="#F6B821" opacity="0.06"/><polygon points="300,150 150,-110 183,-126" fill="#F6B821" opacity="0.06"/><polygon points="300,150 222,-140 258,-147" fill="#F6B821" opacity="0.06"/><polygon points="300,150 300,-150 337,-148" fill="#F6B821" opacity="0.06"/><polygon points="300,150 378,-140 412,-128" fill="#F6B821" opacity="0.06"/><polygon points="300,150 450,-110 481,-90" fill="#F6B821" opacity="0.06"/><polygon points="300,150 512,-62 536,-35" fill="#F6B821" opacity="0.06"/><polygon points="300,150 560,-0 576,33" fill="#F6B821" opacity="0.06"/><polygon points="300,150 590,72 597,108" fill="#F6B821" opacity="0.06"/>
<ellipse cx="300" cy="150" rx="200" ry="120" fill="url(#gl)"/>
<rect x="271" y="101" width="5" height="12" rx="1.5" fill="#8A5CF0" opacity="0.85" transform="rotate(21 271 101)"/><rect x="114" y="145" width="6" height="12" rx="1.5" fill="#8A5CF0" opacity="0.85" transform="rotate(18 114 145)"/><rect x="56" y="55" width="6" height="12" rx="1.5" fill="#F6B821" opacity="0.85" transform="rotate(8 56 55)"/><rect x="357" y="71" width="6" height="12" rx="1.5" fill="#8A5CF0" opacity="0.85" transform="rotate(7 357 71)"/><rect x="94" y="3" width="4" height="8" rx="1.5" fill="#3FC1E8" opacity="0.85" transform="rotate(-28 94 3)"/><rect x="528" y="108" width="5" height="10" rx="1.5" fill="#8A5CF0" opacity="0.85" transform="rotate(5 528 108)"/><rect x="117" y="42" width="5" height="8" rx="1.5" fill="#FF6FB5" opacity="0.85" transform="rotate(10 117 42)"/><rect x="274" y="50" width="4" height="12" rx="1.5" fill="#3FC1E8" opacity="0.85" transform="rotate(-15 274 50)"/><rect x="455" y="92" width="4" height="12" rx="1.5" fill="#F6B821" opacity="0.85" transform="rotate(16 455 92)"/><rect x="240" y="152" width="4" height="8" rx="1.5" fill="#8A5CF0" opacity="0.85" transform="rotate(21 240 152)"/><rect x="0" y="38" width="5" height="10" rx="1.5" fill="#F6B821" opacity="0.85" transform="rotate(29 0 38)"/><rect x="238" y="13" width="6" height="10" rx="1.5" fill="#ffffff" opacity="0.85" transform="rotate(-10 238 13)"/><rect x="187" y="3" width="4" height="8" rx="1.5" fill="#8A5CF0" opacity="0.85" transform="rotate(-15 187 3)"/><rect x="61" y="11" width="4" height="12" rx="1.5" fill="#8A5CF0" opacity="0.85" transform="rotate(4 61 11)"/><rect x="268" y="34" width="5" height="12" rx="1.5" fill="#ffffff" opacity="0.85" transform="rotate(-7 268 34)"/><rect x="237" y="178" width="5" height="12" rx="1.5" fill="#F6B821" opacity="0.85" transform="rotate(-12 237 178)"/><rect x="531" y="38" width="6" height="12" rx="1.5" fill="#8A5CF0" opacity="0.85" transform="rotate(5 531 38)"/><rect x="25" y="26" width="5" height="8" rx="1.5" fill="#8A5CF0" opacity="0.85" transform="rotate(16 25 26)"/><rect x="197" y="53" width="4" height="8" rx="1.5" fill="#F6B821" opacity="0.85" transform="rotate(-17 197 53)"/><rect x="382" y="3" width="5" height="12" rx="1.5" fill="#FF6FB5" opacity="0.85" transform="rotate(-3 382 3)"/><rect x="575" y="87" width="4" height="10" rx="1.5" fill="#3FC1E8" opacity="0.85" transform="rotate(-19 575 87)"/><rect x="92" y="164" width="4" height="12" rx="1.5" fill="#3FC1E8" opacity="0.85" transform="rotate(-19 92 164)"/><rect x="444" y="169" width="6" height="10" rx="1.5" fill="#ffffff" opacity="0.85" transform="rotate(23 444 169)"/><rect x="362" y="76" width="4" height="8" rx="1.5" fill="#F6B821" opacity="0.85" transform="rotate(1 362 76)"/><rect x="153" y="133" width="5" height="10" rx="1.5" fill="#8A5CF0" opacity="0.85" transform="rotate(19 153 133)"/><rect x="358" y="53" width="6" height="8" rx="1.5" fill="#ffffff" opacity="0.85" transform="rotate(-22 358 53)"/><rect x="288" y="118" width="6" height="8" rx="1.5" fill="#3FC1E8" opacity="0.85" transform="rotate(-13 288 118)"/><rect x="550" y="37" width="4" height="10" rx="1.5" fill="#F6B821" opacity="0.85" transform="rotate(-5 550 37)"/><rect x="149" y="8" width="5" height="12" rx="1.5" fill="#FF6FB5" opacity="0.85" transform="rotate(4 149 8)"/><rect x="79" y="65" width="5" height="12" rx="1.5" fill="#8A5CF0" opacity="0.85" transform="rotate(14 79 65)"/><rect x="313" y="170" width="4" height="8" rx="1.5" fill="#3FC1E8" opacity="0.85" transform="rotate(-2 313 170)"/><rect x="214" y="56" width="4" height="12" rx="1.5" fill="#F6B821" opacity="0.85" transform="rotate(8 214 56)"/><rect x="289" y="131" width="4" height="8" rx="1.5" fill="#FF6FB5" opacity="0.85" transform="rotate(-25 289 131)"/><rect x="328" y="133" width="5" height="10" rx="1.5" fill="#ffffff" opacity="0.85" transform="rotate(-25 328 133)"/><rect x="284" y="14" width="4" height="10" rx="1.5" fill="#8A5CF0" opacity="0.85" transform="rotate(4 284 14)"/><rect x="375" y="69" width="4" height="12" rx="1.5" fill="#3FC1E8" opacity="0.85" transform="rotate(-26 375 69)"/><rect x="54" y="21" width="5" height="12" rx="1.5" fill="#FF6FB5" opacity="0.85" transform="rotate(-10 54 21)"/><rect x="561" y="125" width="5" height="10" rx="1.5" fill="#8A5CF0" opacity="0.85" transform="rotate(20 561 125)"/><rect x="50" y="135" width="5" height="12" rx="1.5" fill="#F6B821" opacity="0.85" transform="rotate(-25 50 135)"/><rect x="13" y="172" width="5" height="12" rx="1.5" fill="#F6B821" opacity="0.85" transform="rotate(10 13 172)"/>
<!-- trophy -->
<g transform="translate(300,138)">
 <path d="M-42 -46 h84 v20 a42 42 0 0 1 -84 0 z" fill="url(#cup)"/>
 <path d="M-42 -40 C-72 -40 -72 -6 -46 -2 l4 -14 C-54 -18 -54 -30 -42 -30 z" fill="url(#cup)"/>
 <path d="M42 -40 C72 -40 72 -6 46 -2 l-4 -14 C54 -18 54 -30 42 -30 z" fill="url(#cup)"/>
 <rect x="-8" y="-2" width="16" height="26" fill="#c98a12"/>
 <rect x="-26" y="24" width="52" height="12" rx="3" fill="#c98a12"/>
 <text x="0" y="-16" font-family="Arial" font-size="22" font-weight="900" fill="#7a4e06" text-anchor="middle">1</text>
</g>
<text x="300" y="212" font-family="Arial, Hiragino Sans" font-size="22" font-weight="900" fill="#F6B821" text-anchor="middle" letter-spacing="2">GLOBAL CHART No.1</text>
<text x="300" y="236" font-family="Hiragino Sans" font-size="12" font-weight="700" fill="#ffffff" text-anchor="middle" opacity="0.85">世界を獲ったグループの、レア公式グッズが当たる</text>
</svg>