<svg xmlns="http://www.w3.org/2000/svg" viewBox="0 0 300 220">
<defs><linearGradient id="g" x1="0" y1="0" x2="1" y2="1">
<stop offset="0" stop-color="#FF6FB5"/><stop offset="0.5" stop-color="#C86BE0"/><stop offset="1" stop-color="#6a2f8a"/></linearGradient>
<radialGradient id="s" cx="0.5" cy="0.28" r="0.7"><stop offset="0" stop-color="#fff" stop-opacity="0.4"/><stop offset="1" stop-color="#fff" stop-opacity="0"/></radialGradient></defs>
<rect width="300" height="220" fill="url(#g)"/><rect width="300" height="220" fill="url(#s)"/>
<g fill="#fff" opacity="0.6"><circle cx="40" cy="40" r="2.5"/><circle cx="260" cy="50" r="3"/><circle cx="230" cy="28" r="2"/><circle cx="60" cy="180" r="2.5"/><circle cx="270" cy="170" r="2"/><circle cx="150" cy="30" r="2"/></g>
<g fill="#000" opacity="0.18">
 <circle cx="95" cy="118" r="24"/><path d="M60 205 C60 155 76 138 95 138 C114 138 130 155 130 205 Z"/>
 <circle cx="150" cy="108" r="26"/><path d="M112 200 C112 150 130 130 150 130 C170 130 188 150 188 200 Z"/>
 <circle cx="205" cy="118" r="24"/><path d="M170 205 C170 155 186 138 205 138 C224 138 240 155 240 205 Z"/>
</g>
<text x="150" y="128" font-family="Arial" font-size="72" font-weight="900" fill="#ffffff" fill-opacity="0.92" text-anchor="middle">L</text>
</svg>