<svg xmlns="http://www.w3.org/2000/svg" viewBox="0 0 300 220">
<defs><linearGradient id="g" x1="0" y1="0" x2="1" y2="1">
<stop offset="0" stop-color="#3FC1E8"/><stop offset="1" stop-color="#0f5a70"/></linearGradient>
<radialGradient id="s" cx="0.5" cy="0.3" r="0.7"><stop offset="0" stop-color="#fff" stop-opacity="0.3"/><stop offset="1" stop-color="#fff" stop-opacity="0"/></radialGradient></defs>
<rect width="300" height="220" fill="url(#g)"/><rect width="300" height="220" fill="url(#s)"/>
<g fill="#fff" opacity="0.5"><circle cx="40" cy="40" r="2.5"/><circle cx="260" cy="55" r="3"/><circle cx="230" cy="30" r="2"/><circle cx="60" cy="180" r="2.5"/><circle cx="270" cy="170" r="2"/></g>
<g fill="#000" opacity="0.22">
 <circle cx="110" cy="115" r="30"/><path d="M 66 210 C 66 150 86 128 110 128 C 134 128 154 150 154 210 Z"/>
 <circle cx="180" cy="105" r="26"/><path d="M 142 200 C 142 148 160 128 180 128 C 200 128 218 148 218 200 Z"/>
</g>
<text x="150" y="130" font-family="Hiragino Sans" font-size="86" font-weight="900" fill="#ffffff" fill-opacity="0.9" text-anchor="middle">=</text>
</svg>