<svg xmlns="http://www.w3.org/2000/svg" viewBox="0 0 600 360">
<defs>
 <linearGradient id="bg" x1="0" y1="0" x2="0" y2="1">
  <stop offset="0" stop-color="#0c0a1f"/><stop offset="0.6" stop-color="#1a0e2e"/><stop offset="1" stop-color="#2a0f2a"/></linearGradient>
 <radialGradient id="stage" cx="0.5" cy="0.62" r="0.5">
  <stop offset="0" stop-color="#ffd98a" stop-opacity="0.9"/><stop offset="0.5" stop-color="#ff7a9c" stop-opacity="0.25"/><stop offset="1" stop-color="#ff7a9c" stop-opacity="0"/></radialGradient>
</defs>
<rect width="600" height="360" fill="url(#bg)"/>
<polygon points="150,18 80,250 220,250" fill="#F5455C" opacity="0.10"/><polygon points="260,18 190,250 330,250" fill="#8A5CF0" opacity="0.10"/><polygon points="360,18 290,250 430,250" fill="#2E86F0" opacity="0.10"/><polygon points="460,18 390,250 530,250" fill="#F6B821" opacity="0.10"/>
<!-- stage glow -->
<ellipse cx="300" cy="232" rx="180" ry="46" fill="url(#stage)"/>
<!-- performers silhouette -->
<g fill="#000000" opacity="0.55">
 <circle cx="255" cy="196" r="12"/><rect x="247" y="208" width="16" height="30" rx="6"/>
 <circle cx="300" cy="190" r="13"/><rect x="292" y="203" width="16" height="34" rx="6"/>
 <circle cx="345" cy="196" r="12"/><rect x="337" y="208" width="16" height="30" rx="6"/>
</g>
<!-- crowd base -->
<path d="M0 250 Q 300 232 600 250 L600 300 L0 300 Z" fill="#05040f" opacity="0.85"/>
<line x1="205" y1="261" x2="207" y2="246" stroke="#FF6FB5" stroke-width="2.4" stroke-linecap="round" opacity="0.9"/><circle cx="202" cy="246" r="2.6" fill="#FF6FB5"/><line x1="345" y1="314" x2="344" y2="299" stroke="#8A5CF0" stroke-width="2.4" stroke-linecap="round" opacity="0.9"/><circle cx="342" cy="299" r="2.6" fill="#8A5CF0"/><line x1="79" y1="280" x2="82" y2="257" stroke="#3FC1E8" stroke-width="2.4" stroke-linecap="round" opacity="0.9"/><circle cx="80" cy="257" r="2.6" fill="#3FC1E8"/><line x1="345" y1="254" x2="348" y2="234" stroke="#2CB77E" stroke-width="2.4" stroke-linecap="round" opacity="0.9"/><circle cx="342" cy="234" r="2.6" fill="#2CB77E"/><line x1="494" y1="270" x2="494" y2="248" stroke="#8A5CF0" stroke-width="2.4" stroke-linecap="round" opacity="0.9"/><circle cx="494" cy="248" r="2.6" fill="#8A5CF0"/><line x1="398" y1="257" x2="398" y2="233" stroke="#2CB77E" stroke-width="2.4" stroke-linecap="round" opacity="0.9"/><circle cx="399" cy="233" r="2.6" fill="#2CB77E"/><line x1="64" y1="254" x2="64" y2="232" stroke="#8A5CF0" stroke-width="2.4" stroke-linecap="round" opacity="0.9"/><circle cx="66" cy="232" r="2.6" fill="#8A5CF0"/><line x1="281" y1="315" x2="283" y2="296" stroke="#2E86F0" stroke-width="2.4" stroke-linecap="round" opacity="0.9"/><circle cx="283" cy="296" r="2.6" fill="#2E86F0"/><line x1="162" y1="290" x2="161" y2="268" stroke="#2CB77E" stroke-width="2.4" stroke-linecap="round" opacity="0.9"/><circle cx="162" cy="268" r="2.6" fill="#2CB77E"/><line x1="359" y1="255" x2="360" y2="234" stroke="#2CB77E" stroke-width="2.4" stroke-linecap="round" opacity="0.9"/><circle cx="357" cy="234" r="2.6" fill="#2CB77E"/><line x1="294" y1="253" x2="294" y2="238" stroke="#FF6FB5" stroke-width="2.4" stroke-linecap="round" opacity="0.9"/><circle cx="296" cy="238" r="2.6" fill="#FF6FB5"/><line x1="472" y1="274" x2="472" y2="250" stroke="#2E86F0" stroke-width="2.4" stroke-linecap="round" opacity="0.9"/><circle cx="472" cy="250" r="2.6" fill="#2E86F0"/><line x1="484" y1="316" x2="481" y2="291" stroke="#F6B821" stroke-width="2.4" stroke-linecap="round" opacity="0.9"/><circle cx="485" cy="291" r="2.6" fill="#F6B821"/><line x1="197" y1="290" x2="196" y2="263" stroke="#FF6FB5" stroke-width="2.4" stroke-linecap="round" opacity="0.9"/><circle cx="197" cy="263" r="2.6" fill="#FF6FB5"/><line x1="391" y1="252" x2="392" y2="232" stroke="#F6B821" stroke-width="2.4" stroke-linecap="round" opacity="0.9"/><circle cx="391" cy="232" r="2.6" fill="#F6B821"/><line x1="148" y1="270" x2="147" y2="252" stroke="#FF6FB5" stroke-width="2.4" stroke-linecap="round" opacity="0.9"/><circle cx="150" cy="252" r="2.6" fill="#FF6FB5"/><line x1="74" y1="281" x2="71" y2="263" stroke="#2CB77E" stroke-width="2.4" stroke-linecap="round" opacity="0.9"/><circle cx="73" cy="263" r="2.6" fill="#2CB77E"/><line x1="327" y1="299" x2="326" y2="275" stroke="#2E86F0" stroke-width="2.4" stroke-linecap="round" opacity="0.9"/><circle cx="326" cy="275" r="2.6" fill="#2E86F0"/><line x1="75" y1="261" x2="75" y2="243" stroke="#FF6FB5" stroke-width="2.4" stroke-linecap="round" opacity="0.9"/><circle cx="75" cy="243" r="2.6" fill="#FF6FB5"/><line x1="172" y1="250" x2="173" y2="228" stroke="#F6B821" stroke-width="2.4" stroke-linecap="round" opacity="0.9"/><circle cx="171" cy="228" r="2.6" fill="#F6B821"/><line x1="98" y1="310" x2="99" y2="286" stroke="#2CB77E" stroke-width="2.4" stroke-linecap="round" opacity="0.9"/><circle cx="98" cy="286" r="2.6" fill="#2CB77E"/><line x1="500" y1="317" x2="500" y2="290" stroke="#FF6FB5" stroke-width="2.4" stroke-linecap="round" opacity="0.9"/><circle cx="500" cy="290" r="2.6" fill="#FF6FB5"/><line x1="86" y1="294" x2="89" y2="277" stroke="#F5455C" stroke-width="2.4" stroke-linecap="round" opacity="0.9"/><circle cx="86" cy="277" r="2.6" fill="#F5455C"/><line x1="89" y1="292" x2="87" y2="278" stroke="#F5455C" stroke-width="2.4" stroke-linecap="round" opacity="0.9"/><circle cx="87" cy="278" r="2.6" fill="#F5455C"/><line x1="226" y1="252" x2="226" y2="234" stroke="#3FC1E8" stroke-width="2.4" stroke-linecap="round" opacity="0.9"/><circle cx="227" cy="234" r="2.6" fill="#3FC1E8"/><line x1="546" y1="292" x2="548" y2="276" stroke="#F6B821" stroke-width="2.4" stroke-linecap="round" opacity="0.9"/><circle cx="549" cy="276" r="2.6" fill="#F6B821"/><line x1="282" y1="284" x2="283" y2="268" stroke="#F5455C" stroke-width="2.4" stroke-linecap="round" opacity="0.9"/><circle cx="283" cy="268" r="2.6" fill="#F5455C"/><line x1="288" y1="298" x2="291" y2="284" stroke="#2CB77E" stroke-width="2.4" stroke-linecap="round" opacity="0.9"/><circle cx="289" cy="284" r="2.6" fill="#2CB77E"/><line x1="109" y1="288" x2="108" y2="262" stroke="#F5455C" stroke-width="2.4" stroke-linecap="round" opacity="0.9"/><circle cx="110" cy="262" r="2.6" fill="#F5455C"/><line x1="79" y1="309" x2="77" y2="289" stroke="#2CB77E" stroke-width="2.4" stroke-linecap="round" opacity="0.9"/><circle cx="81" cy="289" r="2.6" fill="#2CB77E"/><line x1="318" y1="305" x2="318" y2="280" stroke="#2E86F0" stroke-width="2.4" stroke-linecap="round" opacity="0.9"/><circle cx="319" cy="280" r="2.6" fill="#2E86F0"/><line x1="439" y1="264" x2="441" y2="237" stroke="#8A5CF0" stroke-width="2.4" stroke-linecap="round" opacity="0.9"/><circle cx="438" cy="237" r="2.6" fill="#8A5CF0"/><line x1="310" y1="275" x2="311" y2="245" stroke="#F5455C" stroke-width="2.4" stroke-linecap="round" opacity="0.9"/><circle cx="309" cy="245" r="2.6" fill="#F5455C"/><line x1="135" y1="292" x2="137" y2="271" stroke="#2E86F0" stroke-width="2.4" stroke-linecap="round" opacity="0.9"/><circle cx="137" cy="271" r="2.6" fill="#2E86F0"/><line x1="546" y1="276" x2="546" y2="260" stroke="#8A5CF0" stroke-width="2.4" stroke-linecap="round" opacity="0.9"/><circle cx="545" cy="260" r="2.6" fill="#8A5CF0"/><line x1="291" y1="319" x2="291" y2="292" stroke="#2CB77E" stroke-width="2.4" stroke-linecap="round" opacity="0.9"/><circle cx="292" cy="292" r="2.6" fill="#2CB77E"/><line x1="462" y1="256" x2="461" y2="240" stroke="#FF6FB5" stroke-width="2.4" stroke-linecap="round" opacity="0.9"/><circle cx="463" cy="240" r="2.6" fill="#FF6FB5"/><line x1="138" y1="312" x2="137" y2="286" stroke="#F6B821" stroke-width="2.4" stroke-linecap="round" opacity="0.9"/><circle cx="139" cy="286" r="2.6" fill="#F6B821"/><line x1="555" y1="278" x2="552" y2="252" stroke="#F6B821" stroke-width="2.4" stroke-linecap="round" opacity="0.9"/><circle cx="553" cy="252" r="2.6" fill="#F6B821"/><line x1="566" y1="252" x2="568" y2="223" stroke="#2CB77E" stroke-width="2.4" stroke-linecap="round" opacity="0.9"/><circle cx="564" cy="223" r="2.6" fill="#2CB77E"/><line x1="476" y1="319" x2="474" y2="290" stroke="#FF6FB5" stroke-width="2.4" stroke-linecap="round" opacity="0.9"/><circle cx="477" cy="290" r="2.6" fill="#FF6FB5"/><line x1="42" y1="306" x2="42" y2="282" stroke="#FF6FB5" stroke-width="2.4" stroke-linecap="round" opacity="0.9"/><circle cx="44" cy="282" r="2.6" fill="#FF6FB5"/><line x1="264" y1="311" x2="261" y2="283" stroke="#3FC1E8" stroke-width="2.4" stroke-linecap="round" opacity="0.9"/><circle cx="263" cy="283" r="2.6" fill="#3FC1E8"/><line x1="301" y1="303" x2="300" y2="285" stroke="#2E86F0" stroke-width="2.4" stroke-linecap="round" opacity="0.9"/><circle cx="298" cy="285" r="2.6" fill="#2E86F0"/><line x1="521" y1="275" x2="523" y2="250" stroke="#F6B821" stroke-width="2.4" stroke-linecap="round" opacity="0.9"/><circle cx="522" cy="250" r="2.6" fill="#F6B821"/><line x1="477" y1="311" x2="477" y2="289" stroke="#8A5CF0" stroke-width="2.4" stroke-linecap="round" opacity="0.9"/><circle cx="474" cy="289" r="2.6" fill="#8A5CF0"/>
<!-- marquee -->
<g>
 <rect x="176" y="34" width="248" height="60" rx="12" fill="#000000" opacity="0.55" stroke="#F6B821" stroke-width="2"/>
 <text x="300" y="70" font-family="Arial, Hiragino Sans" font-size="30" font-weight="900" fill="#ffffff" text-anchor="middle" letter-spacing="1">Zepp Namba</text>
 <text x="300" y="87" font-family="Arial" font-size="10" font-weight="700" fill="#F6B821" text-anchor="middle" letter-spacing="3">OSAKA ・ CAP. 2,700</text>
</g>
<text x="300" y="128" font-family="Hiragino Sans" font-size="15" font-weight="900" fill="#ffffff" text-anchor="middle" opacity="0.95">🏆 部門1位グループの副賞</text>
<!-- caption ribbon -->
<rect x="0" y="300" width="600" height="60" fill="#000000" opacity="0.62"/>
<text x="24" y="325" font-family="Hiragino Sans" font-size="14.5" font-weight="900" fill="#F6B821">なぜ連れて行ける？</text>
<text x="150" y="325" font-family="Hiragino Sans" font-size="13" font-weight="700" fill="#ffffff">応援ファンド（ファンの課金の積立）が会場費・制作費を負担。</text>
<text x="24" y="346" font-family="Hiragino Sans" font-size="13" font-weight="700" fill="#ffffff">あなたの“応援”が、そのまま推しを2,700人のステージへ押し上げます。</text>
</svg>